<?xml version="1.0" encoding="UTF-8" standalone="no"?>
<svg
   xmlns:dc="http://purl.org/dc/elements/1.1/"
   xmlns:cc="http://creativecommons.org/ns#"
   xmlns:rdf="http://www.w3.org/1999/02/22-rdf-syntax-ns#"
   xmlns:svg="http://www.w3.org/2000/svg"
   xmlns="http://www.w3.org/2000/svg"
   viewBox="0 0 179.53732 181.42"
   height="181.42"
   width="179.53732"
   xml:space="preserve"
   id="svg2"
   version="1.1"><metadata
     id="metadata8"><rdf:RDF><cc:Work
         rdf:about=""><dc:format>image/svg+xml</dc:format><dc:type
           rdf:resource="http://purl.org/dc/dcmitype/StillImage" /><dc:title></dc:title></cc:Work></rdf:RDF></metadata><defs
     id="defs6"><clipPath
       id="clipPath22"
       clipPathUnits="userSpaceOnUse"><path
         id="path20"
         d="M 0,136.065 H 134.653 V 0 H 0 Z" /></clipPath></defs><g
     transform="matrix(1.3333333,0,0,-1.3333333,0,181.42)"
     id="g10"><text
       id="text14"
       style="font-variant:normal;font-weight:900;font-stretch:normal;font-size:32.83750153px;font-family:'Arial Black';-inkscape-font-specification:Arial-Black;writing-mode:lr-tb;fill:#1a4f95;fill-opacity:1;fill-rule:nonzero;stroke:none"
       transform="matrix(1,0,0,-1,6.623,12.8711)"><tspan
         id="tspan12"
         y="0"
         x="0 25.547575 38.321362 62.030037 87.577614 98.512497">RISC V</tspan></text>
<g
       id="g16"><g
         clip-path="url(#clipPath22)"
         id="g18"><g
           transform="translate(82.9367,64.4497)"
           id="g24"><path
             id="path26"
             style="fill:#1a4f95;fill-opacity:1;fill-rule:nonzero;stroke:none"
             d="M 0,0 C -0.33,0 -0.654,0.027 -0.978,0.049 V 36.12 c 0.324,0.022 0.648,0.049 0.978,0.049 9.988,0 18.084,-8.097 18.084,-18.085 C 18.084,8.097 9.988,0 0,0 m 0,39.838 c -0.663,0 -1.318,-0.034 -1.966,-0.092 h 0.587 v -0.015 h -24.587 v -56.173 h 24.988 v 12.544 c 0.325,-0.015 0.649,-0.033 0.978,-0.033 12.087,0 21.885,9.798 21.885,21.884 0,12.087 -9.798,21.885 -21.885,21.885" /></g><g
           transform="translate(76.179,90.1371)"
           id="g28"><path
             id="path30"
             style="fill:#fbbf27;fill-opacity:1;fill-rule:nonzero;stroke:none"
             d="M 0,0 -13.025,-19.938 -31.241,6.268 -59.431,6.119 -25.053,-42.036 0,-10.018 Z" /></g><g
           transform="translate(81.9152,87.4503)"
           id="g32"><path
             id="path34"
             style="fill:#fbbf27;fill-opacity:1;fill-rule:nonzero;stroke:none"
             d="M 0,0 26.357,33.685 11.263,28.709 0,11.468 Z" /></g></g></g></g></svg>